<svg xmlns="http://www.w3.org/2000/svg" xml:space="preserve" style="enable-background:new 0 0 716.2 94.5" viewBox="0 0 716.2 94.5" height="30" width="230">
<path d="M22.3 74.2 0 19.9h19.5l17.8 45.5h-9.8l18.7-45.5h18L42 74.2H22.3zM86.4 75.1c-4.3 0-7.9-.7-10.9-2.2-3-1.5-5.3-3.5-6.9-6s-2.3-5.3-2.3-8.4c0-3.3.8-6.2 2.6-8.7 1.7-2.5 4.3-4.3 7.9-5.7 3.6-1.3 8.1-2 13.7-2h12.8v10H92.9c-3.1 0-5.2.5-6.4 1.4-1.2.9-1.8 2.3-1.8 4 0 1.6.6 2.9 1.9 4 1.3 1 3 1.5 5.2 1.5s4.1-.5 5.8-1.5 2.9-2.6 3.7-4.8l2.6 7c-1 3.7-2.9 6.5-5.8 8.5s-7 2.9-11.7 2.9zm16-.9V64.1l-1.3-2.5V43c0-3-.9-5.3-2.8-7s-4.8-2.5-8.8-2.5c-2.6 0-5.2.4-7.9 1.3s-5 2-6.8 3.3l-6.3-12.8c3.1-2 6.8-3.6 11.1-4.7s8.6-1.7 12.8-1.7c8.8 0 15.6 2 20.5 6.1s7.2 10.4 7.2 19v30.1c0 .1-17.7.1-17.7.1zM154.9 75.1c-4.4 0-8.4-.9-11.9-2.6-3.5-1.7-6.2-4.4-8.2-8.2-2-3.7-2.9-8.4-2.9-14.2V19.9h19v27.2c0 4.2.8 7.2 2.4 9 1.6 1.8 3.8 2.8 6.6 2.8 1.9 0 3.6-.4 5.1-1.3 1.6-.9 2.8-2.2 3.6-4.2s1.3-4.3 1.3-7.2V19.9h19v54.3h-18V58.9l3.5 4.3c-1.9 4-4.6 7-8.1 8.9-3.5 2-7.3 3-11.4 3zM224.4 71.4c-4.7 0-9.1-1.1-13.1-3.2s-7.3-5.2-9.7-9.1-3.6-8.5-3.6-13.8 1.2-10 3.6-13.9 5.7-7 9.7-9.1c4-2.1 8.4-3.2 13.1-3.2s8.6.9 11.9 2.8c3.3 1.9 5.8 4.8 7.4 8.6s2.6 8.8 2.6 14.8-.9 10.8-2.6 14.8-4.2 6.8-7.4 8.7-7.2 2.6-11.9 2.6zm3.4 23.1c-5.2 0-10.2-.6-14.9-1.8-4.7-1.2-8.7-3-12-5.3l6.9-13.2c2.3 1.7 5.1 3.1 8.4 4.2s6.7 1.6 9.9 1.6c5.1 0 8.7-1.1 10.9-3.3 2.2-2.2 3.4-5.5 3.4-9.8v-6.3l1-15.3V19.9h18v44.4c0 10.3-2.8 17.9-8.2 22.8s-13.3 7.4-23.4 7.4zm1.2-38.2c2.3 0 4.4-.5 6.1-1.4 1.7-.9 3.1-2.2 4.1-3.9 1-1.7 1.6-3.6 1.6-5.8s-.5-4.1-1.6-5.8-2.4-3-4.1-3.8c-1.7-.9-3.8-1.3-6.1-1.3s-4.3.5-6.1 1.3c-1.8.9-3.2 2.2-4.2 3.8s-1.6 3.6-1.6 5.8.5 4.1 1.6 5.8 2.5 3 4.2 3.9 3.8 1.4 6.1 1.4zM300.3 75.1c-6.5 0-12.1-1.2-16.9-3.7-4.8-2.4-8.5-5.8-11.1-10s-4-9-4-14.3 1.3-10.3 3.9-14.5 6.1-7.5 10.6-10 9.6-3.6 15.4-3.6c5.3 0 10.2 1.1 14.5 3.4s7.9 5.4 10.5 9.6 4 9.2 4 15.2c0 .7 0 1.4-.1 2.3s-.1 1.7-.2 2.4H284v-10h32.8l-7.2 2.8c.1-2.4-.4-4.5-1.4-6.3-1-1.8-2.3-3.2-4-4.2s-3.6-1.5-5.9-1.5-4.4.5-6.1 1.5-3 2.4-4 4.2c-.9 1.8-1.4 4-1.4 6.5v2.9c0 2.7.5 5 1.6 6.9s2.7 3.4 4.8 4.5c2.1 1 4.5 1.5 7.4 1.5s5-.4 6.9-1.2 3.7-2 5.6-3.5l9.9 10.5c-2.5 2.8-5.7 4.9-9.5 6.4s-8.1 2.2-13.2 2.2zM371.3 19c4.2 0 8 .9 11.4 2.6s6.1 4.4 8 7.9 3 8.1 3 13.7v31h-19.1V46.3c0-3.9-.8-6.7-2.4-8.5s-3.7-2.7-6.4-2.7c-2.1 0-3.9.5-5.6 1.3-1.7.9-3 2.3-3.9 4.2-.9 1.9-1.4 4.3-1.4 7.4v26.1h-19V19.9h18.2v15.5l-3.6-4.5c2.1-3.9 4.9-6.8 8.5-8.9s7.8-3 12.3-3zM418.4 74.2l-19.1-54.3h17.9l15.3 45.5h-8.7l16.1-45.5H456l15.4 45.5h-8.5l15.8-45.5h16.7l-19.3 54.3h-18.4l-12.9-37.5h5.5l-13.4 37.5h-18.5zM518.3 75.1c-4.3 0-7.9-.7-11-2.2-3-1.5-5.3-3.5-6.9-6s-2.4-5.3-2.4-8.4c0-3.3.9-6.2 2.5-8.7 1.7-2.5 4.3-4.3 7.9-5.7 3.6-1.3 8.1-2 13.6-2h13v10h-10.2c-3.1 0-5.2.5-6.5 1.4-1.2.9-1.8 2.3-1.8 4 0 1.6.6 2.9 1.9 4 1.3 1 3 1.5 5.2 1.5s4-.5 5.8-1.5 2.9-2.6 3.7-4.8l2.6 7c-1 3.7-3 6.5-5.8 8.5-3.1 1.9-6.9 2.9-11.6 2.9zm16-.9V64.1l-1.3-2.5V43c0-3-.9-5.3-2.8-7s-4.8-2.5-8.8-2.5c-2.6 0-5.2.4-8 1.3s-5 2-6.9 3.3l-6.3-12.8c3.1-2 6.8-3.6 11-4.7 4.3-1.1 8.6-1.7 12.9-1.7 8.8 0 15.6 2 20.5 6.1s7.2 10.4 7.2 19v30.1h-17.5zM564 74.2V0h19v74.2h-19zm15.9-10 .4-22.8 22.1-21.5h22.5l-24.5 25.4-9.6 7.8-10.9 11.1zm23.9 10-16.5-20.8 11.6-14.6 27.9 35.4h-23zM661.1 75.1c-6.5 0-12.1-1.2-16.8-3.7-4.8-2.4-8.5-5.8-11.1-10s-4-9-4-14.3 1.3-10.3 3.8-14.5c2.6-4.2 6.1-7.5 10.6-10S653.3 19 659 19c5.3 0 10.2 1.1 14.5 3.4s7.9 5.4 10.5 9.6 4 9.2 4 15.2c0 .7 0 1.4-.1 2.3-.1.9-.1 1.7-.2 2.4h-42.9v-10h32.8l-7.2 2.8c.1-2.4-.4-4.5-1.3-6.3-1-1.8-2.3-3.2-4-4.2s-3.6-1.5-5.9-1.5-4.4.5-6.1 1.5-3 2.4-4 4.2-1.3 4-1.3 6.5v2.9c0 2.7.5 5 1.7 6.9 1.1 1.9 2.7 3.4 4.8 4.5 2.1 1 4.5 1.5 7.4 1.5s5-.4 6.9-1.2 3.7-2 5.6-3.5l9.9 10.5c-2.5 2.8-5.7 4.9-9.5 6.4s-8.4 2.2-13.5 2.2z"/><path d="M704.8 75.1c-3.2 0-5.9-1.1-8.1-3.2s-3.3-4.8-3.3-8.2 1.1-6 3.3-8 4.9-3 8.1-3 5.9 1 8.1 3c2.2 2 3.3 4.7 3.3 8s-1.1 6.2-3.3 8.2-4.9 3.2-8.1 3.2z" style="fill:#fc0"/>
</svg>